<svg xmlns="http://www.w3.org/2000/svg" viewBox="0 0 500 500"><g id="freepik--background-complete--inject-42"><path d="M387,214.13C397,200.93,400.72,185.2,402.72,169a150.25,150.25,0,0,0,1.08-28.6c0-.21-.35-.17-.34,0a139.25,139.25,0,0,1-1.31,25.48,163.37,163.37,0,0,1-4.57,24.34c-4.49,15.67-14.24,28.41-26.32,39.09-6.79,6-14.12,11.36-21.41,16.74a.18.18,0,0,0,.22.29C363.35,237,377,227.18,387,214.13Z" style="fill:#c7c7c7"></path><path d="M400.31,142.25s-3.91,9.07-3.46,9.63,12.5,1.84,12.8,1.36-.85-10.09-.85-10.09Z" style="fill:#dbdbdb"></path><path d="M412.2,67.91c-20.4-2.17-38.67,12.43-40.17,37.45s20.75,38.14,31,39.23c7.41.79,37.52-2.17,40.84-33.54C446.73,84.25,432.54,70.06,412.2,67.91Z" style="fill:#455a64"></path><path d="M412.2,67.91c-20.4-2.17-38.67,12.43-40.17,37.45s20.75,38.14,31,39.23c7.41.79,37.52-2.17,40.84-33.54C446.73,84.25,432.54,70.06,412.2,67.91Z" style="fill:#dbdbdb"></path><circle cx="417.93" cy="97.35" r="22.72" transform="translate(26.34 272.87) rotate(-37.26)" style="fill:#fff;opacity:0.2"></circle><path d="M431.26,104.33a13.59,13.59,0,1,1,2.71-19A13.58,13.58,0,0,1,431.26,104.33Z" style="fill:#fff;opacity:0.4"></path><path d="M113,384.75c-10.07-13.2-13.76-28.93-15.76-45.12A150.28,150.28,0,0,1,96.2,311c0-.21.35-.17.34,0a139.09,139.09,0,0,0,1.31,25.47,163.5,163.5,0,0,0,4.57,24.35c4.49,15.67,14.24,28.41,26.32,39.09,6.79,6,14.12,11.36,21.41,16.74.19.14,0,.42-.22.29C136.65,407.63,123,397.8,113,384.75Z" style="fill:#c7c7c7"></path><path d="M99.69,312.87s3.91,9.07,3.46,9.63-12.5,1.83-12.8,1.35.85-10.08.85-10.08Z" style="fill:#dbdbdb"></path><path d="M87.8,238.52C108.2,236.36,126.47,251,128,276s-20.75,38.14-31,39.23c-7.41.79-37.52-2.18-40.84-33.54C53.27,254.87,67.46,240.68,87.8,238.52Z" style="fill:#455a64"></path><path d="M87.8,238.52C108.2,236.36,126.47,251,128,276s-20.75,38.14-31,39.23c-7.41.79-37.52-2.18-40.84-33.54C53.27,254.87,67.46,240.68,87.8,238.52Z" style="fill:#dbdbdb"></path><circle cx="82.07" cy="267.97" r="22.72" transform="translate(-123.92 77.94) rotate(-30.28)" style="fill:#fff;opacity:0.2"></circle><path d="M68.74,275a13.59,13.59,0,1,0-2.71-19A13.58,13.58,0,0,0,68.74,275Z" style="fill:#fff;opacity:0.4"></path><path d="M380.91,195.65a98,98,0,0,0,5.67-27.76c.47-9.9-1.18-19.61-3.59-29.18-3-12.12-6.61-24.13-9.89-36.2-.05-.19-.34-.08-.29.11,2.73,10.44,5.46,20.88,8.1,31.34,2.45,9.74,4.68,19.61,4.71,29.7.07,20-7.38,39.21-17.21,56.33-6.12,10.65-13.24,20.71-20.35,30.71-.08.11.07.24.15.13C361.08,233.79,373.78,216,380.91,195.65Z" style="fill:#c7c7c7"></path><path d="M366.73,98.93s-.88,9.83-.28,10.23S378.89,107,379,106.44s-4-9.31-4-9.31Z" style="fill:#ebebeb"></path><path d="M354.79,24.59c-20.06,4.33-32.85,23.9-26.46,48.14S360,102.47,370.06,100.3c7.29-1.57,35-13.8,28.32-44.63C392.7,29.32,374.78,20.28,354.79,24.59Z" style="fill:#ebebeb"></path><path d="M389.12,54.69a22.72,22.72,0,1,1-15-28.4A22.72,22.72,0,0,1,389.12,54.69Z" style="fill:#fff;opacity:0.2"></path><path d="M382.3,45.81a13.59,13.59,0,1,1-9-17A13.59,13.59,0,0,1,382.3,45.81Z" style="fill:#fff;opacity:0.4"></path><rect x="116.86" y="232.62" width="98.29" height="29.65" style="fill:#ebebeb"></rect><polygon points="198.66 262.27 215.16 262.27 215.16 279.45 198.66 262.27" style="fill:#ebebeb"></polygon><rect x="129.4" y="249.87" width="63.6" height="1.06" style="fill:#fff"></rect><rect x="129.4" y="244.13" width="73.8" height="1.06" style="fill:#fff"></rect><rect x="296.79" y="115.93" width="86.35" height="33.41" transform="translate(679.93 265.28) rotate(180)" style="fill:#ebebeb"></rect><polygon points="313.29 149.35 296.79 149.35 296.79 166.53 313.29 149.35" style="fill:#ebebeb"></polygon><rect x="308.75" y="125.77" width="55.08" height="1.06" style="fill:#fff"></rect><rect x="308.75" y="131.51" width="48.7" height="1.06" style="fill:#fff"></rect><rect x="308.75" y="137.25" width="51.26" height="1.06" style="fill:#fff"></rect><path d="M103.52,307.56a2.72,2.72,0,0,1-2.33,3,2.7,2.7,0,1,1,2.33-3Z" style="fill:#ebebeb"></path><path d="M244.94,147.83a2.7,2.7,0,0,1-5.36.71,2.7,2.7,0,1,1,5.36-.71Z" style="fill:#ebebeb"></path><path d="M200.1,156.21a2.7,2.7,0,1,1-3-2.33A2.71,2.71,0,0,1,200.1,156.21Z" style="fill:#ebebeb"></path><path d="M363.87,264.41a1.35,1.35,0,1,1-1.52-1.16A1.35,1.35,0,0,1,363.87,264.41Z" style="fill:#ebebeb"></path><path d="M316.35,111.47a1.35,1.35,0,1,1-1.51-1.16A1.34,1.34,0,0,1,316.35,111.47Z" style="fill:#ebebeb"></path><path d="M331.67,183.93a1.35,1.35,0,0,1-1.16,1.52,1.37,1.37,0,0,1-1.52-1.16,1.35,1.35,0,1,1,2.68-.36Z" style="fill:#ebebeb"></path><path d="M143,230.4a1.34,1.34,0,0,1-1.16,1.51,1.35,1.35,0,0,1-1.52-1.16,1.34,1.34,0,0,1,1.16-1.51A1.35,1.35,0,0,1,143,230.4Z" style="fill:#ebebeb"></path><path d="M264.46,313.19A1.35,1.35,0,1,1,263,312,1.34,1.34,0,0,1,264.46,313.19Z" style="fill:#ebebeb"></path><path d="M209.59,212.55a2.72,2.72,0,0,1-2.33,3,2.7,2.7,0,1,1,2.33-3Z" style="fill:#ebebeb"></path><path d="M265.81,101.85a2.71,2.71,0,1,1-3-2.32A2.72,2.72,0,0,1,265.81,101.85Z" style="fill:#ebebeb"></path><path d="M340.92,231.47l3.83-1.28s-2.61-1.35-2.6-5.53,3.58-5.84,2-9.63l-4.26,1.14a7.94,7.94,0,0,1,.19,6.42C339,225,338,227.86,340.92,231.47Z" style="fill:#ebebeb"></path><path d="M254.22,343.68l-3.78-1.42s1.18,2.7-1.47,5.94-6.46,2.28-7.64,6.19l4,1.8a7.9,7.9,0,0,1,3.89-5.1C251.65,349.93,254.24,348.35,254.22,343.68Z" style="fill:#ebebeb"></path><path d="M317.52,155.21l-3.78-1.42s1.18,2.69-1.46,5.94-6.46,2.27-7.65,6.19l4,1.8a7.88,7.88,0,0,1,3.89-5.1C315,161.45,317.55,159.88,317.52,155.21Z" style="fill:#ebebeb"></path><path d="M137.57,334.86l-3.78-1.42s1.18,2.69-1.46,5.94-6.46,2.27-7.65,6.19l4,1.8a7.91,7.91,0,0,1,3.9-5.1C135,341.1,137.6,339.53,137.57,334.86Z" style="fill:#ebebeb"></path><path d="M254,135.39l.55-4s-2.36,1.75-6.11-.11-3.65-5.8-7.73-6.09l-.87,4.33a7.93,7.93,0,0,1,5.84,2.67C247.36,134.27,249.46,136.45,254,135.39Z" style="fill:#ebebeb"></path><path d="M325.24,266.49l.54-4s-2.36,1.75-6.11-.11-3.65-5.8-7.73-6.09l-.86,4.33a7.9,7.9,0,0,1,5.83,2.67C318.58,265.37,320.69,267.55,325.24,266.49Z" style="fill:#ebebeb"></path><path d="M401.32,292.79l.55-4s-2.37,1.75-6.12-.11-3.64-5.8-7.73-6.09l-.86,4.33a7.88,7.88,0,0,1,5.84,2.67C394.66,291.67,396.77,293.85,401.32,292.79Z" style="fill:#ebebeb"></path><path d="M159.74,153.1l.76,4s1.68-2.41,5.83-1.85,5.31,4.32,9.27,3.28l-.57-4.38a7.89,7.89,0,0,1-6.38-.65C166.4,152,163.71,150.64,159.74,153.1Z" style="fill:#ebebeb"></path><path d="M151,274.68l6.44-1.82s3.07,8.05-3.31,10.32C154.16,283.18,156.33,278.89,151,274.68Z" style="fill:#ebebeb"></path><path d="M152.08,291.69l-5.53-3.61s.82-5.25,7.61-4.9C154.16,283.18,149,287,152.08,291.69Z" style="fill:#ebebeb"></path><path d="M293.26,202.74,289,200.43s-3.44,5.19.7,7.81C289.71,208.24,288.86,204.87,293.26,202.74Z" style="fill:#ebebeb"></path><path d="M289.82,214.56l4.47-1.66s.26-3.83-4.58-4.66C289.71,208.24,292.75,211.72,289.82,214.56Z" style="fill:#ebebeb"></path><path d="M366.58,298.33a2.7,2.7,0,1,1,3,2.33A2.7,2.7,0,0,1,366.58,298.33Z" style="fill:#ebebeb"></path><path d="M383.89,220.56a2.7,2.7,0,1,1,3,2.32A2.71,2.71,0,0,1,383.89,220.56Z" style="fill:#ebebeb"></path><path d="M376.07,380.64a2.7,2.7,0,1,1,3,2.32A2.7,2.7,0,0,1,376.07,380.64Z" style="fill:#ebebeb"></path><path d="M160.87,206.17l-.55,4s2.36-1.74,6.11.11,3.65,5.8,7.73,6.09L175,212a7.87,7.87,0,0,1-5.84-2.67C167.52,207.29,165.41,205.11,160.87,206.17Z" style="fill:#ebebeb"></path><path d="M183.6,123.68l-6.44,1.82s-3.07-8,3.31-10.32C180.47,115.18,178.3,119.46,183.6,123.68Z" style="fill:#ebebeb"></path><path d="M182.55,106.67l5.53,3.61s-.81,5.25-7.61,4.9C180.47,115.18,185.63,111.41,182.55,106.67Z" style="fill:#ebebeb"></path><path d="M387,186.9l4.26,2.31s3.44-5.19-.7-7.8C390.55,181.41,391.4,184.78,387,186.9Z" style="fill:#ebebeb"></path><path d="M390.44,175.08,386,176.75s-.26,3.83,4.59,4.66C390.55,181.41,387.51,177.93,390.44,175.08Z" style="fill:#ebebeb"></path></g><g id="freepik--Table--inject-42"><polygon points="459.98 460.47 407.49 460.72 354.99 460.81 250 460.97 145.01 460.81 92.52 460.72 40.02 460.47 92.52 460.23 145.01 460.14 250 459.98 354.99 460.14 407.49 460.23 459.98 460.47" style="fill:#263238"></polygon></g><g id="freepik--character-4--inject-42"><polygon points="428.35 170.58 428.35 215.96 320.45 215.96 305.27 231.75 305.27 170.58 428.35 170.58" style="fill:#fff"></polygon><path d="M428.35,170.58,428.6,216v.25h-.25l-107.9.2.32-.14-15.15,15.82-.84.88v-1.22l.1-61.17v-.4h.39l61.65.13Zm0,0-61.65.26-61.43.13.39-.39.1,61.17-.84-.34,15.21-15.76.13-.14h.19l107.9.2-.25.25Z" style="fill:#263238"></path><rect x="318.27" y="192.47" width="50.66" height="0.98" style="fill:#c7c7c7"></rect><rect x="318.27" y="183.72" width="46.5" height="0.98" style="fill:#c7c7c7"></rect><rect x="318.27" y="178.44" width="53.96" height="0.98" style="fill:#c7c7c7"></rect><polygon points="326.42 208.86 318.65 208.86 322.54 198.16 326.42 208.86" style="fill:#FFC727"></polygon><path d="M326,207.68l-7.22.82.24-.64,6.74-.82Zm-.67-1.85-5.59,0-.22.62h6Zm-.62-1.71-4.53.55-.24.64,5-.56Zm-.51-1.4-3.32,0-.23.62h3.78Zm-.55-1.52-2.31.28-.24.65,2.77-.32Zm-.58-1.59H322l-.22.62h1.51Z" style="fill:#030402;opacity:0.1"></path><polygon points="326.69 209.19 318.35 209.18 318.27 208.59 326.76 208.51 326.69 209.19" style="fill:#455a64"></polygon><polygon points="326.6 209.86 318.46 209.85 318.37 209.29 326.67 209.29 326.6 209.86" style="fill:#455a64"></polygon><polygon points="323.82 198.31 322.85 198.25 323.71 198.68 323.57 198.92 322.76 198.39 323.3 199.19 323.05 199.33 322.62 198.47 322.68 199.43 322.4 199.43 322.46 198.46 322.02 199.33 321.78 199.19 322.32 198.38 321.51 198.91 321.37 198.67 322.24 198.24 321.27 198.29 321.27 198.01 322.24 198.07 321.37 197.64 321.51 197.4 322.32 197.93 321.79 197.12 322.03 196.98 322.47 197.85 322.41 196.89 322.69 196.89 322.63 197.85 323.06 196.99 323.31 197.13 322.77 197.94 323.58 197.41 323.72 197.65 322.85 198.08 323.82 198.02 323.82 198.31" style="fill:#455a64"></polygon><polygon points="340.08 208.86 332.31 208.86 336.2 198.16 340.08 208.86" style="fill:#FFC727"></polygon><path d="M339.65,207.68l-7.21.82.23-.64,6.75-.82Zm-.67-1.85-5.58,0-.22.62h6Zm-.62-1.71-4.53.55-.23.64,5-.56Zm-.5-1.4-3.32,0-.23.62h3.78Zm-.56-1.52-2.3.28-.24.65,2.77-.32Zm-.57-1.59h-1.06l-.22.62H337Z" style="fill:#030402;opacity:0.1"></path><polygon points="340.34 209.19 332.01 209.18 331.93 208.59 340.42 208.51 340.34 209.19" style="fill:#455a64"></polygon><polygon points="340.26 209.86 332.12 209.85 332.03 209.29 340.33 209.29 340.26 209.86" style="fill:#455a64"></polygon><polygon points="337.48 198.31 336.51 198.25 337.37 198.68 337.23 198.92 336.42 198.39 336.96 199.19 336.71 199.33 336.28 198.47 336.34 199.43 336.06 199.43 336.12 198.46 335.68 199.33 335.44 199.19 335.98 198.38 335.17 198.91 335.03 198.67 335.9 198.24 334.93 198.29 334.93 198.01 335.9 198.07 335.03 197.64 335.17 197.4 335.98 197.93 335.45 197.12 335.69 196.98 336.13 197.85 336.07 196.89 336.35 196.89 336.29 197.85 336.72 196.99 336.97 197.13 336.43 197.94 337.24 197.41 337.38 197.65 336.51 198.08 337.48 198.02 337.48 198.31" style="fill:#455a64"></polygon><polygon points="353.74 208.86 345.97 208.86 349.86 198.16 353.74 208.86" style="fill:#FFC727"></polygon><path d="M353.31,207.68l-7.21.82.23-.64,6.75-.82Zm-.67-1.85-5.58,0-.22.62h6Zm-.62-1.71-4.53.55-.23.64,5-.56Zm-.51-1.4-3.31,0-.23.62h3.78ZM351,201.2l-2.31.28-.23.65,2.77-.32Zm-.57-1.59h-1.06l-.23.62h1.52Z" style="fill:#030402;opacity:0.1"></path><polygon points="354 209.19 345.67 209.18 345.59 208.59 354.08 208.51 354 209.19" style="fill:#455a64"></polygon><polygon points="353.92 209.86 345.78 209.85 345.69 209.29 353.99 209.29 353.92 209.86" style="fill:#455a64"></polygon><polygon points="351.13 198.31 350.17 198.25 351.03 198.68 350.89 198.92 350.08 198.39 350.62 199.19 350.37 199.33 349.94 198.47 350 199.43 349.71 199.43 349.77 198.46 349.34 199.33 349.1 199.19 349.63 198.38 348.83 198.91 348.69 198.67 349.56 198.24 348.59 198.29 348.59 198.01 349.56 198.07 348.69 197.64 348.83 197.4 349.64 197.93 349.11 197.12 349.35 196.98 349.79 197.85 349.73 196.89 350.01 196.89 349.95 197.85 350.38 196.99 350.63 197.13 350.09 197.94 350.9 197.41 351.04 197.65 350.17 198.08 351.13 198.02 351.13 198.31" style="fill:#455a64"></polygon><circle cx="410.71" cy="190.99" r="31.48" transform="translate(131.59 547.71) rotate(-76.9)" style="fill:#ebebeb"></circle><path d="M419.72,201.18s0,0,0,0" style="fill:#FFC727"></path><path d="M432,214.11a29.06,29.06,0,0,0-4.69-5,8.82,8.82,0,0,0-2.63-1.33l-.12,0A20.56,20.56,0,0,0,421,207c-4.68-.63-10.19-.09-11.88,2.07-1.52,1.93-3.4,6.51-5.44,12.64A31.39,31.39,0,0,0,432,214.11Z" style="fill:#37474f"></path><path d="M407.93,211.17a1.28,1.28,0,0,0,0,.19c0,2.16.5,7.64,4.38,8.08,3.63.42,10.5-4.62,12.41-10,.13-.37-1-3.84-2.06-8.13-.67-2.6-1.35-5.51-1.77-8.22-.09-.55-16.31,6.8-16.31,6.8a43.39,43.39,0,0,1,3.28,10.13A5.37,5.37,0,0,1,407.93,211.17Z" style="fill:#eb9481"></path><path d="M407.93,211.17a1.21,1.21,0,0,0,0,.19,11.43,11.43,0,0,0,1.75-.18c9.94-1.8,10.6-14.71,10.61-18-2.95.91-15.71,6.7-15.71,6.7a43.7,43.7,0,0,1,3.29,10.13A7.21,7.21,0,0,1,407.93,211.17Z" style="fill:#263238"></path><path d="M420.71,171.58c2.61,5.8,1.61,23.65-2.19,28.08-5.52,6.43-15.65,8.25-21.38,1.37-5.56-6.68-3.85-29.91.5-34.05C404.05,160.88,416.87,163,420.71,171.58Z" style="fill:#eb9481"></path><path d="M405,184.16s.09.07.08.11c-.09,1.2,0,2.6,1.06,3,0,0,0,.08,0,.07C404.82,187.13,404.72,185.28,405,184.16Z" style="fill:#263238"></path><path d="M406.15,183c1.94-.05,1.89,3.84.09,3.88S404.52,183,406.15,183Z" style="fill:#263238"></path><path d="M398,184.28c0-.05-.1.05-.1.1,0,1.21-.15,2.59-1.24,3a0,0,0,0,0,0,.07C398,187.25,398.25,185.42,398,184.28Z" style="fill:#263238"></path><path d="M397,183c-1.94-.17-2.14,3.71-.34,3.87S398.6,183.15,397,183Z" style="fill:#263238"></path><path d="M407.7,181.2a15.75,15.75,0,0,1-1.5-.54,2.56,2.56,0,0,1-1.42-.86.82.82,0,0,1,.14-1,2,2,0,0,1,2.06-.18,3,3,0,0,1,1.71,1.31A.88.88,0,0,1,407.7,181.2Z" style="fill:#263238"></path><path d="M395.5,181a13.31,13.31,0,0,0,1.54-.38,2.52,2.52,0,0,0,1.51-.69.81.81,0,0,0,0-1,2,2,0,0,0-2-.41,3,3,0,0,0-1.84,1.12A.87.87,0,0,0,395.5,181Z" style="fill:#263238"></path><path d="M406,195.35c-.29.28-.58.66-1,.7a3.23,3.23,0,0,1-1.29-.32,0,0,0,0,0-.05.06,1.63,1.63,0,0,0,1.52.67,1.3,1.3,0,0,0,1-1.05A.07.07,0,0,0,406,195.35Z" style="fill:#263238"></path><path d="M404.77,191.73a4.09,4.09,0,0,1-2.76,1.79,5.23,5.23,0,0,1-1.48,0,1.33,1.33,0,0,1-.28,0l-.26,0a.3.3,0,0,1-.24-.27h0a.49.49,0,0,1,0-.12h0V193c0-.93.09-2.34.09-2.34-.34.17-2.08.92-2,.44a61.33,61.33,0,0,1,1.73-12.39.11.11,0,0,1,.22,0c-.12,3.86-.92,7.68-1.11,11.55a7.2,7.2,0,0,1,1.94-.56c.14,0-.25,2.72-.21,3.13a.18.18,0,0,0,0,0,5.68,5.68,0,0,0,4.26-1.27C404.75,191.55,404.84,191.64,404.77,191.73Z" style="fill:#263238"></path><path d="M401.09,193.11a4.85,4.85,0,0,0,1.93,1.53,2.11,2.11,0,0,0,1.32.1c1-.24,1-1.12.83-1.88a5.15,5.15,0,0,0-.41-1.16A6.28,6.28,0,0,1,401.09,193.11Z" style="fill:#263238"></path><path d="M403,194.64a2.11,2.11,0,0,0,1.32.1c1-.24,1-1.12.83-1.88A2.24,2.24,0,0,0,403,194.64Z" style="fill:#ff9bbc"></path><path d="M421.07,187.92c-3.23-.36-3.5-8.52-3.5-8.52s-4.05-1.41-5.5-8.8c0,0-2.57,7.37-16,6.07a11.54,11.54,0,0,1,.81-7,48.74,48.74,0,0,0-3.21,7.29s-3.46-11.05,5.95-15.2c3.74-1.65,9.5-1.47,18.33,2.64,0,0,1.56-5.27,2.58-4.61s-.8,5.6-.8,5.6,3.8-1.28,4.47-.49-3.1,1.73-3.1,1.73a7.61,7.61,0,0,1,5.1,8.53C425.45,181.39,422.67,188.1,421.07,187.92Z" style="fill:#263238"></path><path d="M420,166.56a7,7,0,0,1,7.23,5.69,13.06,13.06,0,0,1-.67,5.81,24.26,24.26,0,0,1-2.71,5.53c-.06.1-.2,0-.14-.11a18.52,18.52,0,0,0,2.16-5.2,17,17,0,0,0,.72-5.35,6.65,6.65,0,0,0-6.59-6.17C419.92,166.76,419.92,166.57,420,166.56Z" style="fill:#263238"></path><path d="M407.23,159.72a27.19,27.19,0,0,1,6.61,2.26,19.67,19.67,0,0,1,5.52,3.66.09.09,0,0,1-.11.14,35.12,35.12,0,0,0-11.62-5c-3.8-1-8.26-.88-11.07,2.25,0,.06-.12,0-.08-.06C399,159.65,403.41,159,407.23,159.72Z" style="fill:#263238"></path><path d="M418.11,186.55s3.36-6.07,6.08-4.93.6,9.65-2.29,11.09a3.09,3.09,0,0,1-4.28-1.22Z" style="fill:#eb9481"></path><path d="M423.52,184a0,0,0,0,1,0,.08c-2,1.08-2.93,3.15-3.5,5.27a1.71,1.71,0,0,1,2.49-.73s0,.12-.05.12a1.88,1.88,0,0,0-2,.87,9.05,9.05,0,0,0-.82,1.79c-.08.19-.43.13-.38-.1v-.05C419,188.61,420.66,184.62,423.52,184Z" style="fill:#263238"></path></g><g id="freepik--character-3--inject-42"><path d="M293.15,363.33l-10.24,40.25c-.26,1-.52,2-.78,3.05-4.34,17.06-9.29,36.53-13.55,53.22a2.62,2.62,0,0,1-.09.33c0,.1-.05.2-.07.29H179.24C190.78,420,207,363.33,207,363.33Z" style="fill:#37474f"></path><path d="M333.14,451.06l.93,9.41H249.76c0-.38,0-.76,0-1.13-.18-4.59-.31-7.73-.33-7.74l-.2-.1-.29-.15-.74-.36-23.48-11.5c-.1,0-.51-.29-1.12-1.09-2.64-3.38-9.14-15-12.21-40.19-.1-.83-.19-1.67-.29-2.52a262.74,262.74,0,0,1-1.32-32.36v-.05l116.06.05s12.71,31.28,13.66,59.31C339.78,432.22,336.11,442,333.14,451.06Z" style="fill:#37474f"></path><path d="M269.24,460.29c-4-2.75-8.23-5.05-12.42-7.42s-8.64-4.74-13.1-6.82c-8.72-4.06-17.92-7-27.08-9.83-.24-.07-.39.3-.16.4,8.83,3.8,17.39,8.14,26.17,12,4.42,2,8.87,3.84,13.3,5.79s8.73,4.15,13.19,6A.1.1,0,0,0,269.24,460.29Z" style="fill:#263238"></path><path d="M245.08,417.07c-.11-4.33-.42-8.66-.63-13-.51-10.21-.73-18.89-1.68-29.08a.32.32,0,0,0-.63,0c-.13,7.9,0,14.24.16,22.14.08,3.95.19,7.9.3,11.85a109.84,109.84,0,0,1,.08,11.33c-.21,2.85-.84,8.39-4.56,8.73-3.5.32-5.42-3.46-6.29-6.23-2.22-7-3-14.63-3.73-21.94-.42-4.33-1.78-22-1.54-26.34,0-.29-.43-.27-.44,0-.24,4.46-.49,22.4-.2,26.84.27,4.27.63,8.55,1.27,12.78a46,46,0,0,0,2.75,11.3c1.29,3,2.83,5.65,6.19,6.31a7.69,7.69,0,0,0,1.25.13c0,.91.16,1.84.23,2.74.1,1.43.27,2.86.47,4.28a31.09,31.09,0,0,0,.87,4.14,15.38,15.38,0,0,0,1.46,4,.22.22,0,0,0,.4-.12,19.39,19.39,0,0,0-.34-4.08c-.19-1.39-.39-2.79-.67-4.17s-.53-2.71-.81-4.06c-.19-.91-.32-1.84-.49-2.76a6.67,6.67,0,0,0,5-3.9C245,424.62,245.17,420.68,245.08,417.07Z" style="fill:#263238"></path><path d="M314.59,410.14c-5.34.37-10.61,1.06-16,.42a27.7,27.7,0,0,1-13.9-5.45c-8.81-6.83-12.67-18-15.06-28.49a.19.19,0,0,0-.37.05c1,9.09,2.95,18.5,8.82,25.82a28.44,28.44,0,0,0,9.37,7.72,27.49,27.49,0,0,0,12.38,2.55,59.79,59.79,0,0,0,14.82-2A.31.31,0,0,0,314.59,410.14Z" style="fill:#263238"></path><path d="M196.22,408.85c2.06,0,4.07.28,6.21-.68s4-2.85,5.8-6.06c3.9-7,6.17-17.78,7.81-27.79,0-.23.17-.21.14,0-1,8.62-2.41,17.58-5.19,24.86a31.3,31.3,0,0,1-4.18,7.89,8.06,8.06,0,0,1-5,3.23,9.5,9.5,0,0,1-5.66-.88C196,409.37,196.06,408.85,196.22,408.85Z" style="fill:#263238"></path><path d="M249.83,460.47h-1.5c0-.24,0-.49,0-.74-.05-2.89-.18-5.8-.16-8.67V451c0-.26,0-.5,0-.76V450a4.36,4.36,0,0,1,0-.63c0-.22.38-.22.42,0s.07.56.11.85.11.78.17,1.18v0c.33,2.64.56,5.31.82,8Z" style="fill:#263238"></path><path d="M325.84,420.15c-.19,3.63-.55,7.24-1,10.83q-1.44,10.71-3.72,21.28l.5,8.21h-1.1l-.75-8.21v-.08l0-.11c1.43-7.05,2.62-14.16,3.49-21.29s1.7-14.32.91-21.41c-.34-3.55-.93-7.11-1.55-10.65s-1.32-7.07-2.06-10.59c-1.54-7.05-3.16-14.07-4.92-21.07,1.11,3.43,2.13,6.89,3.11,10.37s1.92,7,2.77,10.47a166.75,166.75,0,0,1,4.09,21.32A63.38,63.38,0,0,1,325.84,420.15Z" style="fill:#263238"></path><path d="M235,243.48c-43.35,39.07-83.53,81.85-86.67,103.69-4.36,30.23,14.24,38.62,22.57,38.7,22.68.23,63.91-91.71,78.25-126.82C263,225,244.47,234.9,235,243.48Z" style="fill:#f7a9a0"></path><path d="M207,363.33s-4.09-5.82-4.2-7.8c-.28-5.37,9.15-28.18,9.15-28.18s-13.82-19.2-6.16-35.76c3.87-8.39,30.41-47.21,44.7-57.59,13.41-9.73,30.06-.15,36.31,8.31,17.17,23.28,35.31,39.81,45.16,111,.45,3.26-6.12,10-6.12,10Z" style="fill:#FFC727"></path><path d="M234.65,325a124.71,124.71,0,0,1,18.21,3.15c3,.79,5.87,1.71,8.77,2.69,1.45.49,2.9.94,4.37,1.37a19.7,19.7,0,0,0,4.69.93c.14,0,.13.21,0,.22a34.08,34.08,0,0,1-4.52-.13,31.88,31.88,0,0,1-4.31-.85c-3-.77-6-1.68-9-2.48-6.06-1.61-12.12-3.22-18.29-4.4C234.29,325.45,234.36,325,234.65,325Z" style="fill:#263238"></path><path d="M219.42,330.3a136.06,136.06,0,0,1,15.24-.6c2.55.06,5.07.26,7.6.52,1.21.13,2.42.28,3.62.45s2.63.54,4,.7a.11.11,0,0,1,0,.22c-1.25-.12-2.53,0-3.79-.07l-3.8-.13c-2.54-.08-5.08-.14-7.61-.25-5.08-.21-10.14-.38-15.22-.42C219.14,330.72,219.16,330.33,219.42,330.3Z" style="fill:#263238"></path><path d="M288.14,238.16c42.54,29.59,83.76,81,85.85,111.9,2.06,30.48-16.56,23.57-19.49,22.81-30.95-8.06-64.77-86.35-78.68-120.73C270.15,238.11,277.62,230.84,288.14,238.16Z" style="fill:#f7a9a0"></path><path d="M172.94,384.8c14.15-2.07,22.16-28.35,37.87-70.19,2.75-7.35-33.78-49.39-38.74-42.63-6.24,8.52-22.8,55.76-24.45,68.6C144.37,365.89,156.43,387.22,172.94,384.8Z" style="fill:#f7a9a0"></path><path d="M194.7,357c1.26-3.57,2.61-7.1,4-10.63l4.1-10.56c1.42-3.49,2.79-7,4.17-10.52.71-1.75,1.38-3.52,2-5.28s1.33-3.53,1.84-5.35a75.3,75.3,0,0,1-3.16,10.89c-1.23,3.58-2.61,7.1-4,10.63s-2.83,7-4.32,10.48S196.34,353.54,194.7,357Z" style="fill:#263238"></path><path d="M160.55,302.32c2-14.36,6-34.4,11.17-38.6,5.39-4.4,24.95-19.13,30.59-21.08s30.84-11.55,35.46-8.87c3.71,2.14-.68,11.89-12.66,16.55-10.54,4.11-16,7.94-19,9.24s-10.46,11.27-8.44,15.67c1.19,2.6,8.74,5.64,13.43,3.52S217,267.33,222.34,263s14.82-3.85,15.37-1.3-2.58,3.75-7.41,12.43c-3.12,5.59-3.32,19-10.38,28.59-3.55,4.83-9.73,17.68-9.73,17.68Z" style="fill:#f7a9a0"></path><path d="M227.35,259a9.32,9.32,0,0,0,4.69-2.12A3.77,3.77,0,0,0,233.1,255a3.71,3.71,0,0,0,0-1.2,1.79,1.79,0,0,0-.46-1.14c-.1-.07,0-.19.09-.09a6.07,6.07,0,0,0,.43.57,2.27,2.27,0,0,1,.27.54,3.14,3.14,0,0,1,.21,1.17,3.9,3.9,0,0,1-.94,2.39,6.44,6.44,0,0,1-5.38,1.94A.07.07,0,0,1,227.35,259Z" style="fill:#263238"></path><path d="M171.72,263.72c4.56-7.16,16.23-20.09,27.8-24.54,7.82-3,34.74,10.08,33.95,15.23s-5.37,5.16-12.18,4.36c-2.48-.3-15.6-5-17.83-2.24-3.21,4-7.28,17.47-7.28,17.47Z" style="fill:#f7a9a0"></path><path d="M232.81,252.4c-3.33-5.5-10.64-8.44-17.92-10.75a.09.09,0,0,0-.06.17c1.85.59,13.71,6,17.9,10.67C232.77,252.54,232.84,252.46,232.81,252.4Z" style="fill:#263238"></path><path d="M171.72,263.72c4.56-7.16,16.23-20.09,27.8-24.54,7.82-3,29.12,13.75,28.34,18.9s-7.39,5.55-14.69,3c-2.36-.82-10.27-6.38-12.51-3.63-3.21,4-11,13.78-11,13.78Z" style="fill:#f7a9a0"></path><path d="M194.14,265.16c.73-1.13,1-1.52,1.73-2.64s1.52-2.22,2.35-3.28a10.22,10.22,0,0,1,2.41-2.54,5.18,5.18,0,0,1,3.23-.64c2.53.23,4.82,1.84,7,3.07,2.39,1.37,7.37,3.6,11.18,3.2a7.46,7.46,0,0,0,3-.82,4.63,4.63,0,0,0,1.8-1.44c1.65-2.8-.42-6-2.53-8.26-3.93-4.22-9.22-7.27-14.35-9.79-1.26-.61-2.54-1.2-3.81-1.78a11.33,11.33,0,0,0-4.62-1.32c-2.65,0-7,2.67-8.33,3.49-.1.06-.17-.11-.08-.17,1.63-1,5.66-4.32,9.93-4.1a13.24,13.24,0,0,1,4.44,1.49c1.49.64,3,1.33,4.41,2.05a61.06,61.06,0,0,1,8.14,4.81,25.1,25.1,0,0,1,6.66,6.29,7.44,7.44,0,0,1,.47,7.61c-1.17,1.94-3.66,2.41-4.8,2.56a12.27,12.27,0,0,1-3.37,0,54.15,54.15,0,0,1-7.32-2.13c-2.31-.92-4.4-2.48-6.78-3.2a4.45,4.45,0,0,0-3.45.23,11.52,11.52,0,0,0-2.58,2.35,35.74,35.74,0,0,0-4.31,5.12C194.18,265.8,193.83,265.64,194.14,265.16Z" style="fill:#263238"></path><path d="M168.34,270c1.67-3.41,4.49-17.47,7.2-21.78S190.62,229,196.4,229.62c7.27.81-.29,13.91-4.09,19.31s-3.16,14.56-3.16,14.56Z" style="fill:#f7a9a0"></path><path d="M197.61,240a65.38,65.38,0,0,0-3.73,5.44,41.61,41.61,0,0,0-3.24,5.35,18.94,18.94,0,0,0-1.42,6c-.09,1-.12,2-.13,3s.1,2.22.07,3.33c0,.12.18.13.18,0a47,47,0,0,1,.79-6,25.67,25.67,0,0,1,1.82-6c1.69-3.81,4.18-7.21,5.91-11C197.93,240,197.7,239.86,197.61,240Z" style="fill:#263238"></path><path d="M189.24,265a18.07,18.07,0,0,0,1.06,5,37.88,37.88,0,0,0,2,4.7,49.42,49.42,0,0,0,2.47,4.45,50.56,50.56,0,0,0,3,4.14,32.76,32.76,0,0,1,5.15,9,29.52,29.52,0,0,1,1.7,10.17,36.11,36.11,0,0,0-2.39-9.9,37.09,37.09,0,0,0-5.25-8.66,43,43,0,0,1-3-4.24,38.64,38.64,0,0,1-2.38-4.61C190.23,271.88,189,268.5,189.24,265Z" style="fill:#263238"></path><path d="M275.37,234.06c-.31,2.34-9.76,18.45-22.52,17.82-7.42-.37-2.53-15.21-2.53-15.21l-6.64-20.16,24.25-19S275.48,233.07,275.37,234.06Z" style="fill:#f7a9a0"></path><path d="M270.69,210.83A40.48,40.48,0,0,1,250,235.55l-6.27-19,24.25-19S269.18,203.55,270.69,210.83Z" style="fill:#263238"></path><path d="M270.58,195.46c4.51,16.47,27.43,30.72,29.14,62.64.77,14.34-18.51,35.08-9.13,60.81,2.43,6.67-43.86-21.89-26.71-81.85C269.25,218.25,270.58,195.46,270.58,195.46Z" style="fill:#263238"></path><path d="M264.94,240.31c-6.9,19.89-9.91,45,3.73,62.86,4,5.21,9.25,9,14.58,12.7.09.06.18-.09.09-.16-4.68-3.36-9.38-6.82-13-11.32A44.47,44.47,0,0,1,262.65,290c-3.35-10.35-3.28-21.41-1.48-32,1-5.94,2.64-11.68,4.16-17.49A.2.2,0,0,0,264.94,240.31Z" style="fill:#263238"></path><path d="M286.26,219.46c-4.62-5.58-9.64-11-13-17.41,0-.08-.14,0-.11.06,5.24,10.62,14.54,18.48,20.31,28.79,5.38,9.62,8.43,20.61,7.68,31.67a49.13,49.13,0,0,1-4.38,17c-.08.17.17.32.26.15,4.69-8.78,5.89-19.26,4.39-29C299.57,239,293.77,228.54,286.26,219.46Z" style="fill:#263238"></path><path d="M269.77,207.9a52,52,0,0,1-2.85,15.61c-1.69,5-3.82,9.8-5.57,14.76-3.68,10.42-5.84,21.57-4.47,32.62a47.49,47.49,0,0,0,6,17.89s.06,0,0,0c-5.75-10.18-6.77-22.63-5.06-34a88.82,88.82,0,0,1,4-15.82c1.7-4.9,3.72-9.68,5.34-14.61,1.73-5.26,3.24-10.84,2.9-16.43A.19.19,0,0,0,269.77,207.9Z" style="fill:#263238"></path><rect x="266.66" y="205.23" width="13.08" height="7.45" rx="3.27" transform="translate(605.76 296.72) rotate(157.38)" style="fill:#FFC727"></rect><path d="M214.54,188.44c-.34,34.75,20.44,38.88,27.94,38.94,6.8.06,30-.6,33.9-35.14s-12.13-45.68-27.68-46.64S214.88,153.68,214.54,188.44Z" style="fill:#f7a9a0"></path><path d="M224,185.72a22.48,22.48,0,0,0,2.29-.71,3.9,3.9,0,0,0,2.21-1.16,1.24,1.24,0,0,0-.14-1.5,3,3,0,0,0-3.07-.45,4.5,4.5,0,0,0-2.68,1.84A1.32,1.32,0,0,0,224,185.72Z" style="fill:#263238"></path><path d="M247.7,183.57a20.89,20.89,0,0,1-2.38-.28,3.9,3.9,0,0,1-2.38-.75,1.23,1.23,0,0,1-.13-1.51,3,3,0,0,1,2.94-1,4.56,4.56,0,0,1,3,1.33A1.32,1.32,0,0,1,247.7,183.57Z" style="fill:#263238"></path><path d="M243.53,192.77c0-.09.19.1.2.19.08,2.37.57,5.07,2.76,5.71.06,0,.06.14,0,.13C243.84,198.61,243.23,195,243.53,192.77Z" style="fill:#263238"></path><path d="M245.48,190.16c3.78-.54,4.58,7.06,1.07,7.56S242.31,190.61,245.48,190.16Z" style="fill:#263238"></path><path d="M247,190.41c.71.36,1.44,1.05,2.25,1s1.55-.87,2.07-1.7c.06-.09.13,0,.14.07.18,1.46-.22,3-1.76,3.39s-2.56-.83-3.08-2.26C246.53,190.69,246.73,190.26,247,190.41Z" style="fill:#263238"></path><path d="M229.3,193.94c0-.09-.17.13-.15.23.34,2.34.33,5.08-1.71,6.11-.06,0,0,.14,0,.12C230,199.75,230,196.11,229.3,193.94Z" style="fill:#263238"></path><path d="M226.93,191.72c-3.82.14-3.26,7.76.28,7.63S230.12,191.6,226.93,191.72Z" style="fill:#263238"></path><path d="M225.37,192.34c-.57.45-1.11,1.23-1.83,1.33s-1.5-.67-2.09-1.42c-.07-.08-.12,0-.12.09.07,1.46.66,2.94,2.08,3.12s2.15-1.16,2.39-2.63C225.84,192.55,225.6,192.16,225.37,192.34Z" style="fill:#263238"></path><path d="M243.89,211.66c-.47.63-.92,1.47-1.76,1.67a6.21,6.21,0,0,1-2.6-.21.08.08,0,0,0-.08.14,3.18,3.18,0,0,0,3.16.82,2.52,2.52,0,0,0,1.53-2.35C244.15,211.59,244,211.57,243.89,211.66Z" style="fill:#263238"></path><path d="M233.25,204.06s-.16,3.57,0,5.23c0,.15.43.19,1,.17,0,0,.05,0,.07,0a7.92,7.92,0,0,0,7.39-3.66c.1-.17-.13-.32-.27-.21a11.93,11.93,0,0,1-7,2.74c-.16-.45.48-6.1.21-6.09a14.91,14.91,0,0,0-3.69,1.2c.12-7.43,1.42-14.79,1.42-22.2a.22.22,0,0,0-.44-.06c-1.91,7.61-2.23,16.17-2.55,23.84C229.3,206,232.61,204.4,233.25,204.06Z" style="fill:#263238"></path><path d="M235.26,208.47a8.53,8.53,0,0,0,3.55,2.47,3.89,3.89,0,0,0,2.34,0c1.66-.52,1.63-2.07,1.25-3.38a9.31,9.31,0,0,0-.86-2A11.06,11.06,0,0,1,235.26,208.47Z" style="fill:#263238"></path><path d="M238.81,210.94a3.89,3.89,0,0,0,2.34,0c1.66-.52,1.63-2.07,1.25-3.38C240.6,207.85,238.87,209.17,238.81,210.94Z" style="fill:#ff9abb"></path><path d="M273.51,193.49c-8.34.62-13.57-24.67-14.18-27.78.28,2,1.73,12.47,1,13a8,8,0,0,1-2.66-.21h0a25,25,0,0,0-.72-3.73c-.13-.57-.08,1.29-.15,3.6-.48-.08-1-.18-1.58-.26a30.18,30.18,0,0,0-1.67-7.91c-.35-1-.13,3.54-.65,7.55-5.9-.92-14.41-2-22.18-1.44-2.08.15-3.87.37-5.45.62-.35-3.11-.36-6.45-.5-5.72a29.9,29.9,0,0,0-.67,5.92c-.85.14-1.64.29-2.34.44-.7-4.37.62-11.6,0-10.45a30.93,30.93,0,0,0-3,11.27c-2.93.91-4.52,1.31-4.52,1.31-.3-1.39,0-14.37,8.6-24.42,9.31-10.93,31.12-16,44.47-2.2,0,0,9.65,5.57,12.28,15.52S278.33,193.12,273.51,193.49Z" style="fill:#263238"></path><path d="M270.49,192.49s6.73-11.4,11.84-9.08.64,18.44-5,21a5.87,5.87,0,0,1-8.09-2.54Z" style="fill:#f7a9a0"></path><path d="M280.93,188c.1,0,.12.11.05.15-3.92,1.95-5.76,5.86-7,9.86,1.09-1.59,2.66-2.54,4.78-1.26.11.07,0,.24-.1.22a3.64,3.64,0,0,0-3.87,1.57,17.09,17.09,0,0,0-1.65,3.35c-.16.38-.83.24-.72-.19,0,0,0-.07,0-.1C272,196.46,275.44,188.94,280.93,188Z" style="fill:#263238"></path><polygon points="278.66 160.51 234.2 145.62 276.94 91.86 278.66 160.51" style="fill:#FFC727"></polygon><path d="M278.4,150.58a9.19,9.19,0,0,1-3.1-1.61,15.86,15.86,0,0,1-3.06-3.22,25.4,25.4,0,0,0,3.27-8.36,26.2,26.2,0,0,0,.54-5.46,16.12,16.12,0,0,0-.89-5.47,8.65,8.65,0,0,0-1.44-2.53,5.32,5.32,0,0,0-2.54-1.64,5.64,5.64,0,0,0-1.54-.17,3.46,3.46,0,0,0-1.56.44,4.58,4.58,0,0,0-1.91,2.4,14,14,0,0,0-.59,5.56,30.24,30.24,0,0,0,.95,5.36,32.19,32.19,0,0,0,4.2,9.41,12.84,12.84,0,0,1-.83,1.15,12.47,12.47,0,0,1-3.78,3.28,9.28,9.28,0,0,1-4.76,1.13,10.49,10.49,0,0,1-4.77-1.25,7.18,7.18,0,0,1-3.11-3.63,11.4,11.4,0,0,1-.66-4.94v0a21,21,0,0,0,2.48-1.81,22.36,22.36,0,0,0,3.74-4,13.7,13.7,0,0,0,1.41-2.38,6.2,6.2,0,0,0,.45-1.4,2.81,2.81,0,0,0-.12-1.65,1.85,1.85,0,0,0-.61-.75,2.35,2.35,0,0,0-.84-.35,2.73,2.73,0,0,0-1.66.21,6.65,6.65,0,0,0-2.29,1.83,17.17,17.17,0,0,0-2.7,4.83,20,20,0,0,0-1.19,5.22c-.37.22-.74.42-1.13.62a12.92,12.92,0,0,1-4.94,1.38,9,9,0,0,1-2.54-.24,7,7,0,0,1-4-2.74l-.33.41a7.56,7.56,0,0,0,1.71,1.77,7.86,7.86,0,0,0,2.49,1.2,9.15,9.15,0,0,0,2.75.35,13.46,13.46,0,0,0,5.29-1.37c.23-.12.47-.23.7-.36a12.06,12.06,0,0,0,.76,4.69,8.55,8.55,0,0,0,3.68,4.34,12.06,12.06,0,0,0,5.44,1.49,10.85,10.85,0,0,0,5.5-1.28,13.77,13.77,0,0,0,4.27-3.64c.2-.26.4-.53.59-.81a16.26,16.26,0,0,0,3.11,3.09,10,10,0,0,0,3.64,1.74ZM253.92,136a16,16,0,0,1,2.45-4.47,5.18,5.18,0,0,1,1.79-1.54,1.61,1.61,0,0,1,.94-.15.78.78,0,0,1,.62.41,3.06,3.06,0,0,1-.3,2.12,12,12,0,0,1-1.25,2.23,22,22,0,0,1-3.5,3.84A18.08,18.08,0,0,1,253,139.8,18.32,18.32,0,0,1,253.92,136Zm17.4,8.36a31.09,31.09,0,0,1-3.65-8.79,27.33,27.33,0,0,1-.81-5.15,12.53,12.53,0,0,1,.54-5,3.24,3.24,0,0,1,1.33-1.71,2.74,2.74,0,0,1,2.08-.13,4.9,4.9,0,0,1,3,3.34,15,15,0,0,1,.77,5,24.09,24.09,0,0,1-.54,5.15A24.85,24.85,0,0,1,271.32,144.37Zm6.13-32a17.12,17.12,0,0,1-1.5,1.45,15.67,15.67,0,0,1-4.31,2.72,5.44,5.44,0,0,1-2.32.47,1.56,1.56,0,0,1-.89-.32.76.76,0,0,1-.33-.67,3,3,0,0,1,1.28-1.71,13.27,13.27,0,0,1,2.17-1.33,22.44,22.44,0,0,1,4.94-1.66c.31-.06.62-.12.94-.16l0-1c-.37,0-.74.11-1.1.17a23.28,23.28,0,0,0-5.2,1.64,13.58,13.58,0,0,0-2.4,1.41,6.25,6.25,0,0,0-1.08,1,2.91,2.91,0,0,0-.69,1.5,1.81,1.81,0,0,0,.17,1,2.37,2.37,0,0,0,.55.72,2.8,2.8,0,0,0,1.56.64,6.73,6.73,0,0,0,2.89-.5,16.24,16.24,0,0,0,4.7-2.91,7,7,0,0,0,.69-.63Zm-14.19-3.33a27.25,27.25,0,0,1-1.32,3.36,12.76,12.76,0,0,1-2.91,4.1,3.26,3.26,0,0,1-2,.84,2.19,2.19,0,0,1-.36,0l-.91,1.14a3.43,3.43,0,0,0,1.26.23,4.51,4.51,0,0,0,2.84-1.17,13.62,13.62,0,0,0,3.21-4.56,30.49,30.49,0,0,0,1.79-5.15c.08-.37.18-.73.25-1.1ZM277,95.79a11.22,11.22,0,0,0-2.44-1l-1,1.27a9.21,9.21,0,0,1,3.1,1.18c.13.09.27.16.4.26Z" style="fill:#263238"></path><polygon points="279.53 162.88 231.85 146.9 232.56 143.34 281.25 159.18 279.53 162.88" style="fill:#455a64"></polygon><polygon points="277.77 166.57 231.22 150.97 231.75 147.55 279.23 163.47 277.77 166.57" style="fill:#455a64"></polygon><polygon points="283.94 95.14 278.52 92.95 282.64 97.07 281.36 98.2 277.76 93.59 279.27 99.23 277.6 99.56 276.79 93.77 275.28 99.41 273.66 98.87 275.86 93.44 271.73 97.56 270.6 96.29 275.22 92.69 269.58 94.2 269.24 92.53 275.04 91.72 269.4 90.2 269.94 88.59 275.37 90.79 271.24 86.65 272.51 85.53 276.12 90.15 274.61 84.5 276.27 84.17 277.09 89.96 278.6 84.32 280.21 84.86 278.02 90.29 282.15 86.17 283.27 87.44 278.66 91.04 284.3 89.53 284.64 91.2 278.83 92.01 284.48 93.53 283.94 95.14" style="fill:#455a64"></polygon><path d="M242.6,248.42l22.67,58.38c.87,1.69.16,3.24-1.58,3.45l-31.1,3.87a5.08,5.08,0,0,1-4.71-2.67l-22.67-58.38c-.86-1.69-.15-3.24,1.58-3.45l31.1-3.87A5.07,5.07,0,0,1,242.6,248.42Z" style="fill:#37474f"></path><path d="M238.91,248.85l22.67,58.38c.86,1.69.15,3.23-1.59,3.45l-31.09,3.86a5.08,5.08,0,0,1-4.72-2.67l-22.66-58.38c-.87-1.69-.16-3.23,1.58-3.45l31.1-3.86A5.07,5.07,0,0,1,238.91,248.85Z" style="fill:#455a64"></path><path d="M230.73,252.66a2.66,2.66,0,1,0,2.24-3A2.66,2.66,0,0,0,230.73,252.66Z" style="fill:#263238"></path><path d="M364.78,373.09c-13.52,2.67-27.16-5.94-73.09-35.53-6.35-4.1,10.49-56.73,17.5-52.71,8.83,5.07,42,26.66,44.23,28.55C372.21,329.3,374,371.28,364.78,373.09Z" style="fill:#f7a9a0"></path><path d="M325.83,299.51S312.26,282.63,302.38,276c-13.22-8.92-28.31-11.17-34.69-11.73-13.32-1.18-46.33,5.19-46.16,15,.16,8.9,33.58.69,33.58.69s-35.45,2.75-33.29,13.43,40.4-1.06,40.4-1.06-36.36,3.64-32.39,14.3c3,8.05,38.24-.63,38.24-.63s-31.23,3.35-28.5,11.76c3,9.3,36,3.33,36,3.33,10.54,20.23,23.83,25.55,33.73,28.21C311.74,349.92,325.83,299.51,325.83,299.51Z" style="fill:#f7a9a0"></path><path d="M267.31,278.2c-4.18.18-8.41.32-12.55.86s-8.28,1.24-12.36,2.16c-10,2.27-15.9,5.26-15.52,5.12,9.1-3.43,23.92-5.6,28.07-6.14s8.25-1.29,12.39-1.84C267.44,278.35,267.41,278.2,267.31,278.2Z" style="fill:#263238"></path><path d="M269.54,293.14c-5.32.45-10.62.7-15.93,1.39s-10.22,1.79-15.44,2.84c-.4.08-.23.27.18.2,5.25-.83,10.18-1.2,15.44-2s10.5-1.76,15.77-2.33C269.65,293.26,269.62,293.13,269.54,293.14Z" style="fill:#263238"></path><path d="M273.76,305.62c-8.17.27-16.28,2.05-24.19,4-.39.1-.14.32.27.24,8-1.47,14.29-2.69,23.93-3.94C273.92,305.88,273.94,305.61,273.76,305.62Z" style="fill:#263238"></path><path d="M281.9,266.82a47,47,0,0,1,10.31,3.25,67.64,67.64,0,0,1,9.55,5.15c.75.49,1.49,1,2.24,1.53s1.49,1,2.2,1.6l2.16,1.65,2.05,1.79c1.4,1.15,2.64,2.49,4,3.73s2.47,2.65,3.71,4l-.16-.13c4.26,2.63,8.5,5.29,12.69,8s8.4,5.45,12.57,8.22c2.07,1.4,4.14,2.82,6.18,4.27a48,48,0,0,1,6,4.66,32.89,32.89,0,0,1,4.66,5.94,45,45,0,0,1,3.5,6.66,44.05,44.05,0,0,0-8.72-12,48.08,48.08,0,0,0-6-4.38c-2.08-1.38-4.19-2.71-6.29-4.06q-6.28-4.08-12.64-8.08c-4.24-2.65-8.45-5.35-12.67-8l-.08-.05-.07-.09c-1.21-1.31-2.38-2.67-3.62-3.94s-2.49-2.56-3.86-3.71a85.61,85.61,0,0,0-8.35-6.7,76.22,76.22,0,0,0-9.24-5.42A51.5,51.5,0,0,0,281.9,266.82Z" style="fill:#263238"></path></g><g id="freepik--character-2--inject-42"><polygon points="193.19 164.54 193.19 225.71 178.01 209.92 70.11 209.92 70.11 164.54 193.19 164.54" style="fill:#fff"></polygon><path d="M193.19,164.54l.15,30.52q.1,15.28.13,30.65v.69l-.48-.5-15.21-15.76.23.1-53.95.1-53.95.06h-.48v-.48l.09-45.38v-.4h.39l61.65.13Zm0,0-61.65.26-61.43.13.39-.39.09,45.38-.48-.48,54,.06,53.95.1h.14l.09.1,15.15,15.82-.48.19q0-15.24.13-30.52Z" style="fill:#263238"></path><rect x="128.23" y="180.68" width="46.5" height="0.98" style="fill:#c7c7c7"></rect><rect x="128.23" y="175.4" width="53.96" height="0.98" style="fill:#c7c7c7"></rect><polygon points="133.94 193.29 133.68 187.6 134.64 187.6 134.64 193.29 133.94 193.29" style="fill:#37474f"></polygon><path d="M134.16,187.15c-1.33-.83,0-2.41,0-2.41S135.48,186.32,134.16,187.15Z" style="fill:#FFC727"></path><path d="M134.16,187.15c-.86-.54,0-1.56,0-1.56S135,186.61,134.16,187.15Z" style="opacity:0.1"></path><rect x="128.44" y="190.61" width="11.44" height="8.72" style="fill:#FFC727"></rect><rect x="128.44" y="190.61" width="11.44" height="8.72" style="opacity:0.1"></rect><path d="M139.85,195.44a8.47,8.47,0,0,1-1.64.15c-.46-.07-2.17-.15-2.71-.15a13.12,13.12,0,0,1-2.15.09,17.12,17.12,0,0,0-2.73-.09,6.74,6.74,0,0,1-2,0c-.25-.14-.31-.41-.24-.44s.43.33.84.3a21.13,21.13,0,0,1,2.33-.31c.47,0,1.79.34,2,.31a8.76,8.76,0,0,1,2-.15,10.43,10.43,0,0,0,2,.05,9.82,9.82,0,0,1,2.28.1C140,195.41,139.92,195.44,139.85,195.44Z" style="fill:#FFC727"></path><path d="M128.25,190.49H140s.26,1.21-.06,1.21-.23-.49-.62-.49-.31,1.45-.77,1.45-.38-.9-.69-.9-.29.54-.62.54-.36-1.08-.68-1.08-.36.87-.92.87-.57-.75-1-.75-.27,1.51-.81,1.51-.38-.86-.63-1-.1.64-.44.64-.21-1.05-.48-1.05-.22.84-.61.84-.24-1.2-.68-1.2-.31.64-.75.64-.47-.53-.84-.53-.4.88-.81.88S128.25,190.49,128.25,190.49Z" style="fill:#FFC727"></path><path d="M128.25,190.49H140s.26,1.21-.06,1.21-.23-.49-.62-.49-.31,1.45-.77,1.45-.38-.9-.69-.9-.29.54-.62.54-.36-1.08-.68-1.08-.36.87-.92.87-.57-.75-1-.75-.27,1.51-.81,1.51-.38-.86-.63-1-.1.64-.44.64-.21-1.05-.48-1.05-.22.84-.61.84-.24-1.2-.68-1.2-.31.64-.75.64-.47-.53-.84-.53-.4.88-.81.88S128.25,190.49,128.25,190.49Z" style="fill:#fff;opacity:0.30000000000000004"></path><polygon points="149.99 193.29 149.72 187.6 150.68 187.6 150.68 193.29 149.99 193.29" style="fill:#37474f"></polygon><path d="M150.2,187.15c-1.32-.83,0-2.41,0-2.41S151.53,186.32,150.2,187.15Z" style="fill:#FFC727"></path><path d="M150.2,187.15c-.85-.54,0-1.56,0-1.56S151.06,186.61,150.2,187.15Z" style="opacity:0.1"></path><rect x="144.48" y="190.61" width="11.44" height="8.72" style="fill:#FFC727"></rect><rect x="144.48" y="190.61" width="11.44" height="8.72" style="opacity:0.1"></rect><path d="M155.9,195.44a8.47,8.47,0,0,1-1.64.15c-.46-.07-2.18-.15-2.71-.15a13.12,13.12,0,0,1-2.15.09,17.15,17.15,0,0,0-2.73-.09,6.81,6.81,0,0,1-2,0c-.24-.14-.3-.41-.24-.44s.44.33.84.3a21.64,21.64,0,0,1,2.34-.31c.47,0,1.79.34,2,.31a8.66,8.66,0,0,1,2-.15,10.43,10.43,0,0,0,2,.05,9.85,9.85,0,0,1,2.28.1C156,195.41,156,195.44,155.9,195.44Z" style="fill:#FFC727"></path><path d="M144.3,190.49H156s.26,1.21-.06,1.21-.23-.49-.62-.49-.31,1.45-.77,1.45-.38-.9-.69-.9-.29.54-.62.54-.36-1.08-.69-1.08-.35.87-.91.87-.57-.75-1-.75-.26,1.51-.8,1.51-.39-.86-.64-1-.09.64-.43.64-.21-1.05-.48-1.05-.22.84-.61.84-.24-1.2-.69-1.2-.3.64-.74.64-.47-.53-.84-.53-.4.88-.81.88S144.3,190.49,144.3,190.49Z" style="fill:#FFC727"></path><path d="M144.3,190.49H156s.26,1.21-.06,1.21-.23-.49-.62-.49-.31,1.45-.77,1.45-.38-.9-.69-.9-.29.54-.62.54-.36-1.08-.69-1.08-.35.87-.91.87-.57-.75-1-.75-.26,1.51-.8,1.51-.39-.86-.64-1-.09.64-.43.64-.21-1.05-.48-1.05-.22.84-.61.84-.24-1.2-.69-1.2-.3.64-.74.64-.47-.53-.84-.53-.4.88-.81.88S144.3,190.49,144.3,190.49Z" style="fill:#fff;opacity:0.30000000000000004"></path><polygon points="166.04 193.29 165.77 187.6 166.73 187.6 166.73 193.29 166.04 193.29" style="fill:#37474f"></polygon><path d="M166.25,187.15c-1.32-.83,0-2.41,0-2.41S167.58,186.32,166.25,187.15Z" style="fill:#FFC727"></path><path d="M166.25,187.15c-.86-.54,0-1.56,0-1.56S167.11,186.61,166.25,187.15Z" style="opacity:0.1"></path><rect x="160.53" y="190.61" width="11.44" height="8.72" style="fill:#FFC727"></rect><rect x="160.53" y="190.61" width="11.44" height="8.72" style="opacity:0.1"></rect><path d="M171.94,195.44a8.37,8.37,0,0,1-1.63.15c-.46-.07-2.18-.15-2.71-.15a13.12,13.12,0,0,1-2.15.09,17.15,17.15,0,0,0-2.73-.09,6.81,6.81,0,0,1-2,0c-.25-.14-.3-.41-.24-.44s.43.33.84.3a21.31,21.31,0,0,1,2.34-.31c.47,0,1.79.34,2,.31a8.66,8.66,0,0,1,2-.15,10.31,10.31,0,0,0,2,.05,9.82,9.82,0,0,1,2.28.1C172,195.41,172,195.44,171.94,195.44Z" style="fill:#FFC727"></path><path d="M160.34,190.49h11.74s.26,1.21-.06,1.21-.23-.49-.62-.49-.31,1.45-.77,1.45-.38-.9-.7-.9-.28.54-.61.54-.37-1.08-.69-1.08-.35.87-.91.87-.57-.75-1-.75-.27,1.51-.8,1.51-.39-.86-.64-1-.1.64-.43.64-.21-1.05-.48-1.05-.22.84-.61.84-.24-1.2-.69-1.2-.3.64-.74.64-.47-.53-.84-.53-.4.88-.81.88S160.34,190.49,160.34,190.49Z" style="fill:#FFC727"></path><path d="M160.34,190.49h11.74s.26,1.21-.06,1.21-.23-.49-.62-.49-.31,1.45-.77,1.45-.38-.9-.7-.9-.28.54-.61.54-.37-1.08-.69-1.08-.35.87-.91.87-.57-.75-1-.75-.27,1.51-.8,1.51-.39-.86-.64-1-.1.64-.43.64-.21-1.05-.48-1.05-.22.84-.61.84-.24-1.2-.69-1.2-.3.64-.74.64-.47-.53-.84-.53-.4.88-.81.88S160.34,190.49,160.34,190.49Z" style="fill:#fff;opacity:0.30000000000000004"></path><circle cx="88.81" cy="187.23" r="31.47" transform="translate(-106.38 117.63) rotate(-45)" style="fill:#ebebeb"></circle><path d="M79.8,197.42s0,0,0,0" style="fill:#FFC727"></path><path d="M112.4,191.84l1.9,1.54a15.35,15.35,0,0,1,3.38,3.35,5.35,5.35,0,0,1,.67,1.38c.13-.36.25-.72.37-1.09a5.27,5.27,0,0,0-.46-.7,15.38,15.38,0,0,0-3.69-3.3l-2-1.37a5.6,5.6,0,0,1-1.73-1.66c-1-4.73-2.91-19.18-6.73-24.05-4.32-5.5-10.5-4.58-11.92-4.72,0,0-7.08-2.51-13.18.21-3.55,1.58-6.12,4.94-8,8.62h0a.25.25,0,0,1,0,.07l0,.06a74,74,0,0,0-3.4,7.88c-.57,1.33-1.09,2.69-1.75,4a9.14,9.14,0,0,1-1.11,1.75,1.44,1.44,0,0,1-.32.33,1.69,1.69,0,0,1-.38.27c-.3.17-.62.32-1,.48a42.54,42.54,0,0,0-3.93,2,9.16,9.16,0,0,0-1.72,1.34c0,.38,0,.76,0,1.14a8,8,0,0,1,2.11-1.76c1.21-.72,2.56-1.24,3.9-1.87.33-.16.66-.33,1-.52a3.18,3.18,0,0,0,.93-.82,8.65,8.65,0,0,0,1-1.66c-.13.41-.26.76-.37,1-1.76,4.24-6.63,3.73-8.42,7.49a31.47,31.47,0,0,0,60.35,8c0-.12,0-.23-.09-.36-1.22-4.07-5.88-4.45-6.83-8-.06-.22-.13-.51-.2-.84A5.11,5.11,0,0,0,112.4,191.84Z" style="fill:#263238"></path><path d="M96.21,205.39c-5.29-3.94-11.33-4.63-17.11,2.23a45.37,45.37,0,0,0-4.89,7.5,31.45,31.45,0,0,0,29.22,0A108.76,108.76,0,0,0,96.21,205.39Z" style="fill:#FFC727"></path><path d="M83.74,194.3a5,5,0,0,0,0,.55c0,.5,0,1,0,1.52s0,.77,0,1.18,0,.8,0,1.21a62.93,62.93,0,0,0,1,8.62c.44,1.08,7,7.55,12.06,6.5,1.67-.35.19-9.51.19-9.51l0-.7.63-9.81-12.26-5.4-1.76-.69s0,2.7,0,6C83.73,194,83.73,194.14,83.74,194.3Z" style="fill:#d3766a"></path><path d="M97.08,203.67l.63-9.81-12.26-5.4-1.76-.69s0,2.7,0,6A19.73,19.73,0,0,0,97.08,203.67Z" style="fill:#263238"></path><path d="M109.77,179.1c-1.83-17.16-11.29-20.75-18.93-19.53s-15,7.49-11.45,24.37S94.47,200,97.83,199.69C101.53,199.3,111.6,196.27,109.77,179.1Z" style="fill:#d3766a"></path><path d="M105.26,175.42a11.69,11.69,0,0,1-1.19-.12,2,2,0,0,1-1.19-.35.62.62,0,0,1-.07-.75,1.5,1.5,0,0,1,1.45-.51,2.26,2.26,0,0,1,1.48.63A.66.66,0,0,1,105.26,175.42Z" style="fill:#263238"></path><path d="M94,176.75a11.47,11.47,0,0,0,1.13-.37,2,2,0,0,0,1.09-.6.61.61,0,0,0-.09-.74,1.5,1.5,0,0,0-1.53-.19,2.21,2.21,0,0,0-1.31.93A.66.66,0,0,0,94,176.75Z" style="fill:#263238"></path><path d="M96.71,180.83s-.09.07-.08.12c.19,1.16.21,2.52-.79,3,0,0,0,.08,0,.07C97.12,183.71,97.07,181.9,96.71,180.83Z" style="fill:#263238"></path><path d="M95.51,179.75c-1.89.11-1.55,3.88.2,3.79S97.09,179.67,95.51,179.75Z" style="fill:#263238"></path><path d="M94.78,180c-.31.24-.59.65-1,.73s-.84-.28-1.17-.63c0,0-.07,0-.06,0,0,.72.4,1.44,1.18,1.48s1.17-.66,1.28-1.4C95,180.11,94.91,179.92,94.78,180Z" style="fill:#263238"></path><path d="M103.45,179.94c0-.05.1.05.1.1.06,1.17.33,2.5,1.42,2.8,0,0,0,.07,0,.07C103.66,182.84,103.32,181.06,103.45,179.94Z" style="fill:#263238"></path><path d="M104.4,178.63c1.87-.3,2.33,3.46.6,3.74S102.83,178.88,104.4,178.63Z" style="fill:#263238"></path><path d="M105.21,178.78c.32.16.66.49,1,.47s.67-.47.89-.89c0-.05,0,0,.06,0,.11.72,0,1.5-.71,1.72s-1.16-.36-1.42-1.05C105,178.93,105.08,178.71,105.21,178.78Z" style="fill:#263238"></path><path d="M98,190.18c.29.26.59.63,1,.64a3,3,0,0,0,1.24-.35,0,0,0,0,1,.06.06,1.59,1.59,0,0,1-1.46.7,1.24,1.24,0,0,1-1-1C97.83,190.17,97.91,190.14,98,190.18Z" style="fill:#263238"></path><path d="M102.41,185.45s.42,1.72.5,2.54c0,.08-.18.14-.46.18h0a4,4,0,0,1-4-1.07.09.09,0,0,1,.11-.13,5.91,5.91,0,0,0,3.68.66c0-.24-.82-2.93-.69-2.95a7.07,7.07,0,0,1,1.92.23c-.78-3.61-2.12-7.07-2.84-10.67,0-.13.16-.19.21-.08a59.15,59.15,0,0,1,3.54,11.37C104.51,186,102.75,185.55,102.41,185.45Z" style="fill:#263238"></path><path d="M79.9,184.29a7,7,0,0,0,4.1-5.52c14.33-3.34,17.23-13.26,17.23-13.26,4.33,7,7.06,7.72,7.7,8.77,0,0-.15-6.77-3.37-11.29a14,14,0,0,0-16.34-5.07C84.93,159.41,82,164,82,164s-4.66,1.5-5.82,5.75C74.26,176.86,79.9,184.29,79.9,184.29Z" style="fill:#263238"></path><path d="M101.33,164.89a11.91,11.91,0,0,1-1.83,5.58,15.07,15.07,0,0,1-4.07,4.31l-1.26.81c-.43.25-.89.44-1.33.67a18.2,18.2,0,0,1-2.76,1.09c-.94.29-1.91.47-2.87.71s-1.95.25-2.92.34c.95-.23,1.91-.42,2.86-.63s1.88-.52,2.79-.85a22,22,0,0,0,5.14-2.62,15.83,15.83,0,0,0,4-4.08A13.94,13.94,0,0,0,101.33,164.89Z" style="fill:#263238"></path><path d="M82.26,185s-3.88-5.31-6.29-3.92.56,9.14,3.45,10.15a2.91,2.91,0,0,0,3.88-1.64Z" style="fill:#d3766a"></path><path d="M76.88,183.25a0,0,0,0,0,0,.08c2,.77,3.13,2.62,3.91,4.54a1.61,1.61,0,0,0-2.42-.4s0,.12.05.11a1.8,1.8,0,0,1,2,.59,8,8,0,0,1,1,1.58c.1.18.42.07.35-.13l0-.05C81.7,187,79.64,183.45,76.88,183.25Z" style="fill:#263238"></path></g><g id="freepik--character-1--inject-42"><polygon points="213.14 88.13 213.14 149.3 197.96 133.5 90.06 133.5 90.06 88.13 213.14 88.13" style="fill:#fff"></polygon><path d="M213.14,88.13l.15,30.52q.11,15.28.13,30.65V150l-.48-.5-15.21-15.77.23.1-54,.1L90.06,134h-.48v-.48l.09-45.37v-.4h.39l61.65.13Zm0,0-61.65.26-61.43.13.39-.39.09,45.37-.48-.48,53.95.06,54,.1h.14l.09.1,15.15,15.83-.48.19q0-15.24.13-30.52Z" style="fill:#263238"></path><rect x="148.18" y="97.23" width="50.66" height="0.98" style="fill:#c7c7c7"></rect><rect x="148.18" y="102.5" width="44.79" height="0.98" style="fill:#c7c7c7"></rect><rect x="148.18" y="107.78" width="47.14" height="0.98" style="fill:#c7c7c7"></rect><path d="M148.93,127.59l0-.22a5.35,5.35,0,0,0,2.87-1.66c.93-1.26.46-4.4.46-4.44l.22,0c0,.13.49,3.27-.5,4.6A5.53,5.53,0,0,1,148.93,127.59Z" style="fill:#263238"></path><path d="M152.84,121a6.56,6.56,0,0,1,.28,1.16,6.19,6.19,0,0,1-1.49,0,11.42,11.42,0,0,1,.22-1.16Z" style="fill:#FFC727"></path><path d="M152.38,112.28c2.38,0,4.31,1.91,4.18,4.81a4.45,4.45,0,0,1-4.06,4.15,4.36,4.36,0,0,1-4.3-4.37C148.2,113.74,150,112.28,152.38,112.28Z" style="fill:#FFC727"></path><path d="M161.18,127.59l0-.22a5.35,5.35,0,0,0,2.87-1.66c.93-1.26.46-4.4.45-4.44l.23,0c0,.13.49,3.27-.5,4.6A5.56,5.56,0,0,1,161.18,127.59Z" style="fill:#263238"></path><path d="M165.09,121a6.56,6.56,0,0,1,.28,1.16,6.19,6.19,0,0,1-1.49,0,11.42,11.42,0,0,1,.22-1.16Z" style="fill:#FFC727"></path><path d="M164.63,112.28c2.38,0,4.31,1.91,4.18,4.81a4.45,4.45,0,0,1-4.06,4.15,4.37,4.37,0,0,1-4.31-4.37C160.44,113.74,162.25,112.28,164.63,112.28Z" style="fill:#FFC727"></path><circle cx="108.76" cy="109.76" r="31.48" transform="translate(-45.76 109.05) rotate(-45)" style="fill:#ebebeb"></circle><path d="M99.75,120s0,0,0,0" style="fill:#FFC727"></path><path d="M108.76,141.23a31.64,31.64,0,0,0,4.26-.3c-.83-5.18-1.56-9.78-1.93-12a9.12,9.12,0,0,0-.73-1.1c-1.69-2.16-7.2-2.71-11.88-2.07a20.36,20.36,0,0,0-3.6.77l-.12,0c-.27.09-.54.19-.79.3.12.8.8,5.49,1.69,11.54A31.14,31.14,0,0,0,108.76,141.23Z" style="fill:#ebebeb"></path><path d="M94,126.82l0-.14s-.31.18-.83.53-.86.6-1.44,1a47.65,47.65,0,0,0-4.76,4.14l.53.5a31.09,31.09,0,0,0,8.21,5.48C94.77,132.31,94.09,127.62,94,126.82Z" style="fill:#455a64"></path><path d="M110.86,127.39s.08.55.23,1.5c.37,2.26,1.1,6.86,1.93,12,.94-.12,1.87-.29,2.78-.5l.32-.08C114.08,134,112.22,129.1,110.86,127.39Z" style="fill:#455a64"></path><path d="M107.15,138.21c3.88-.44,4.39-5.92,4.38-8.08,0-.07,0-.14,0-.19a5.5,5.5,0,0,1,.06-1.13,43.42,43.42,0,0,1,3.28-10.12s-16.22-7.35-16.31-6.8c-.43,2.7-1.11,5.62-1.77,8.22-1.11,4.28-2.19,7.76-2.06,8.13C96.65,133.59,103.51,138.63,107.15,138.21Z" style="fill:#ad6359"></path><path d="M111.54,129.94c0,.06,0,.12,0,.19a10.37,10.37,0,0,1-1.75-.19c-10-1.79-10.6-14.7-10.61-18,3,.91,15.71,6.7,15.71,6.7a43.7,43.7,0,0,0-3.29,10.13A6.12,6.12,0,0,0,111.54,129.94Z" style="fill:#263238"></path><path d="M98.76,90.35c-2.61,5.8-1.61,23.65,2.19,28.08,5.52,6.42,15.65,8.25,21.38,1.36,5.56-6.67,3.85-29.9-.5-34C115.42,79.65,102.6,81.77,98.76,90.35Z" style="fill:#ad6359"></path><path d="M114.46,102.93s-.09.06-.09.11c.1,1.2,0,2.59-1.05,3a0,0,0,0,0,0,.07C114.65,105.9,114.75,104.05,114.46,102.93Z" style="fill:#263238"></path><path d="M113.32,101.73c-1.94,0-1.89,3.84-.09,3.88S115,101.77,113.32,101.73Z" style="fill:#263238"></path><path d="M121.43,103.05s.1,0,.1.1c0,1.21.15,2.59,1.24,3,0,0,0,.07,0,.06C121.43,106,121.22,104.18,121.43,103.05Z" style="fill:#263238"></path><path d="M122.49,101.78c1.94-.17,2.13,3.71.34,3.87S120.87,101.92,122.49,101.78Z" style="fill:#263238"></path><path d="M111.77,100a15.82,15.82,0,0,0,1.5-.55,2.55,2.55,0,0,0,1.42-.85.82.82,0,0,0-.14-1,2,2,0,0,0-2.06-.19,3,3,0,0,0-1.71,1.32A.88.88,0,0,0,111.77,100Z" style="fill:#263238"></path><path d="M124,99.8a14,14,0,0,1-1.55-.38,2.52,2.52,0,0,1-1.5-.69.84.84,0,0,1,0-1,2,2,0,0,1,2-.4,3,3,0,0,1,1.84,1.12A.88.88,0,0,1,124,99.8Z" style="fill:#263238"></path><path d="M113.48,114.12c.29.28.58.66,1,.69a3.22,3.22,0,0,0,1.29-.31,0,0,0,0,1,0,.06,1.63,1.63,0,0,1-1.52.67,1.3,1.3,0,0,1-1-1.06C113.34,114.1,113.44,114.08,113.48,114.12Z" style="fill:#263238"></path><path d="M114.7,110.5a4.07,4.07,0,0,0,2.76,1.79,5.17,5.17,0,0,0,1.47,0,1.36,1.36,0,0,0,.29,0l.26,0a.3.3,0,0,0,.24-.27h0a.5.5,0,0,0,0-.12h0v-.11c0-.92-.09-2.33-.09-2.33.34.16,2.08.92,2,.44a61.23,61.23,0,0,0-1.73-12.39c0-.13-.24-.1-.22,0,.12,3.86.92,7.68,1.11,11.55a7.16,7.16,0,0,0-2-.56c-.13,0,.26,2.72.22,3.13a.18.18,0,0,1,0,0,5.72,5.72,0,0,1-4.26-1.27C114.72,110.32,114.63,110.4,114.7,110.5Z" style="fill:#263238"></path><path d="M118.38,111.88a4.85,4.85,0,0,1-1.93,1.53,2.22,2.22,0,0,1-1.33.1c-1-.24-1-1.13-.83-1.88a5.47,5.47,0,0,1,.42-1.16A6.36,6.36,0,0,0,118.38,111.88Z" style="fill:#263238"></path><path d="M116.45,113.41a2.22,2.22,0,0,1-1.33.1c-1-.24-1-1.13-.83-1.88A2.26,2.26,0,0,1,116.45,113.41Z" style="fill:#ff9bbc"></path><path d="M124.46,91.62c-.67-1.52-1.45-3.05-2.37-3.35s-1.51,2-3.6,2.12c-2.82.22-4.21-2.36-8.17-2.59-5.67-.34-8.12,4.42-8.18,12.47,0,7.19-4.38,7.92-4.38,7.92S95,92.36,99.38,87.06,114,79.35,121,84.28C123.49,86.09,124.46,91.62,124.46,91.62Z" style="fill:#263238"></path><path d="M101.35,105.32s-3.35-6.08-6.07-4.94-.6,9.65,2.29,11.09a3.08,3.08,0,0,0,4.28-1.21Z" style="fill:#ad6359"></path><path d="M96,102.81a0,0,0,0,0,0,.08c2,1.08,2.93,3.15,3.49,5.27a1.69,1.69,0,0,0-2.48-.73c-.06,0,0,.12,0,.11a1.91,1.91,0,0,1,2,.88,9.88,9.88,0,0,1,.82,1.78c.08.2.43.14.38-.09v0C100.51,107.37,98.81,103.38,96,102.81Z" style="fill:#263238"></path></g><g id="freepik--Gifts--inject-42"><path d="M402.38,346a7.93,7.93,0,0,1-1.27,3.93c0-.26-.1-.53-.16-.81s-.15-.56-.24-.85a16,16,0,0,0-3.07-5.29l-.45-.53-.13-.13h0a2.41,2.41,0,0,1-.21-.24c-12.41-15.72-24.23,9.76-24.48,10.34h0s-.68-25.41,12.87-26.11C395.85,325.76,403,338.16,402.38,346Z" style="fill:#455a64"></path><path d="M401.11,349.94a5.19,5.19,0,0,1-1.11,1.18c-6.47,4.95-26.34,1.54-27.58,1.33l-.06,0c18.68,1.8,23.81-5,24.7-10.1l.13.13.45.53a16.49,16.49,0,0,1,3.07,5.29c.09.29.17.57.24.85S401.07,349.68,401.11,349.94Z" style="fill:#37474f"></path><path d="M341.88,348.9a7.9,7.9,0,0,0,1.63,3.79c0-.26.05-.54.09-.82a6.6,6.6,0,0,1,.15-.87,16.07,16.07,0,0,1,2.55-5.56l.4-.57.11-.14h0c.07-.09.14-.17.2-.26,10.85-16.84,25,7.4,25.35,8h0s-1.74-25.36-15.29-24.77C346.45,328.12,340.51,341.14,341.88,348.9Z" style="fill:#455a64"></path><path d="M343.51,352.69a4.93,4.93,0,0,0,1.22,1.06c6.91,4.32,26.37-1,27.58-1.3l.05,0c-18.42,3.57-24.17-2.7-25.55-7.7l-.11.14-.4.57a16.45,16.45,0,0,0-2.55,5.56,6.6,6.6,0,0,0-.15.87C343.56,352.15,343.53,352.43,343.51,352.69Z" style="fill:#37474f"></path><polygon points="407.32 460.47 338.75 460.47 335.82 353.91 410.47 355.46 407.32 460.47" style="fill:#FFC727"></polygon><polygon points="407.32 460.47 338.75 460.47 335.82 353.91 410.47 355.46 407.32 460.47" style="opacity:0.1"></polygon><polygon points="432.42 460.47 407.32 460.47 408.36 355.46 435.5 357.62 432.42 460.47" style="fill:#FFC727"></polygon><g style="opacity:0.2"><polygon points="432.42 460.47 407.32 460.47 408.36 355.46 435.5 357.62 432.42 460.47"></polygon></g><polygon points="331.74 353.83 333.49 371.85 408.36 371.85 408.36 350.15 331.74 353.83" style="fill:#FFC727"></polygon><polygon points="331.74 353.83 333.49 371.85 408.36 371.85 408.36 350.15 331.74 353.83" style="opacity:0.2"></polygon><polygon points="437.84 371.85 408.36 371.85 408.36 350.15 440.7 353.97 437.84 371.85" style="fill:#FFC727"></polygon><polygon points="437.84 371.85 408.36 371.85 408.36 350.15 440.7 353.97 437.84 371.85" style="opacity:0.30000000000000004"></polygon><polygon points="429.15 352.61 423.63 460.33 417.33 460.33 420.83 351.63 429.15 352.61" style="fill:#37474f"></polygon><polygon points="380.16 351.6 380.16 460.47 363.6 460.47 361.73 352.45 380.16 351.6" style="fill:#455a64"></polygon><path d="M438.78,414.7c.76-2.53-.4-6-6.51-7.66-9.29-2.56-16,7.06-16.76,8.27.85-1.4,8.95-14.07,18.33-11.53C441.26,405.78,440.84,411.51,438.78,414.7Z" style="fill:#FFC727"></path><path d="M438.78,414.7a5,5,0,0,1-2.44,2.14c-3.26,1-10.68,1.62-20.27-1.21l-.64-.2.08-.12,0-.07h.08c10.09,1.47,17.12.39,20-.65a3.85,3.85,0,0,0,2.15-3.4,4.32,4.32,0,0,0-.06-1.13A4.81,4.81,0,0,1,438.78,414.7Z" style="fill:#FFC727"></path><path d="M438.78,414.7a5,5,0,0,1-2.44,2.14c-3.26,1-10.68,1.62-20.27-1.21l-.64-.2.08-.12,0-.07h.08c10.09,1.47,17.12.39,20-.65a3.85,3.85,0,0,0,2.15-3.4,4.32,4.32,0,0,0-.06-1.13A4.81,4.81,0,0,1,438.78,414.7Z" style="opacity:0.2"></path><path d="M432.74,401.46c-1.25-2.94-4.63-5.69-10.6-3.89-9.08,2.74-7.31,16.05-7.06,17.71-.34-1.87-3.22-19,5.91-21.84C428.22,391.21,432,397.12,432.74,401.46Z" style="fill:#FFC727"></path><path d="M432.74,401.46a5.33,5.33,0,0,1-.35,3.5c-1.81,2.85-7.13,7.68-16.64,10.31l-.64.18,0-.17s0-.06,0-.1l.07,0c8.9-4.28,13.59-9.34,15.08-12,.58-1,.29-2.93-.79-4.59a8.07,8.07,0,0,0-.86-1.09A7.15,7.15,0,0,1,432.74,401.46Z" style="fill:#FFC727"></path><path d="M432.74,401.46a5.33,5.33,0,0,1-.35,3.5c-1.81,2.85-7.13,7.68-16.64,10.31l-.64.18,0-.17s0-.06,0-.1l.07,0c8.9-4.28,13.59-9.34,15.08-12,.58-1,.29-2.93-.79-4.59a8.07,8.07,0,0,0-.86-1.09A7.15,7.15,0,0,1,432.74,401.46Z" style="opacity:0.2"></path><path d="M391.36,414.7c-.76-2.53.39-6,6.5-7.66,9.29-2.56,16,7.06,16.77,8.27-.86-1.4-8.95-14.07-18.34-11.53C388.88,405.78,389.29,411.51,391.36,414.7Z" style="fill:#FFC727"></path><path d="M391.36,414.7a5,5,0,0,0,2.44,2.14c3.26,1,10.67,1.62,20.27-1.21l.64-.2-.08-.12-.05-.07h-.08c-10.09,1.47-17.11.39-20-.65a3.86,3.86,0,0,1-2.15-3.4,5.39,5.39,0,0,1,.06-1.13A4.8,4.8,0,0,0,391.36,414.7Z" style="fill:#FFC727"></path><path d="M391.36,414.7a5,5,0,0,0,2.44,2.14c3.26,1,10.67,1.62,20.27-1.21l.64-.2-.08-.12-.05-.07h-.08c-10.09,1.47-17.11.39-20-.65a3.86,3.86,0,0,1-2.15-3.4,5.39,5.39,0,0,1,.06-1.13A4.8,4.8,0,0,0,391.36,414.7Z" style="opacity:0.2"></path><path d="M396.78,401.46c1.24-2.94,4.63-5.69,10.6-3.89,9.08,2.74,7.31,16.05,7.06,17.71.34-1.87,3.22-19-5.91-21.84C401.3,391.21,397.48,397.12,396.78,401.46Z" style="fill:#FFC727"></path><path d="M396.78,401.46a5.33,5.33,0,0,0,.35,3.5c1.81,2.85,7.13,7.68,16.64,10.31l.64.18,0-.17s0-.06,0-.1l-.07,0c-8.9-4.28-13.59-9.34-15.08-12-.58-1-.29-2.93.79-4.59a7.35,7.35,0,0,1,.86-1.09A7.15,7.15,0,0,0,396.78,401.46Z" style="fill:#FFC727"></path><path d="M396.78,401.46a5.33,5.33,0,0,0,.35,3.5c1.81,2.85,7.13,7.68,16.64,10.31l.64.18,0-.17s0-.06,0-.1l-.07,0c-8.9-4.28-13.59-9.34-15.08-12-.58-1-.29-2.93.79-4.59a7.35,7.35,0,0,1,.86-1.09A7.15,7.15,0,0,0,396.78,401.46Z" style="opacity:0.2"></path><polygon points="437.83 460.47 388.66 460.47 386.65 418.05 440 419.85 437.83 460.47" style="fill:#37474f"></polygon><polygon points="455.08 460.47 437.83 460.47 438.55 419.85 457.19 421.92 455.08 460.47" style="fill:#455a64"></polygon><polygon points="382.65 417.16 383.85 434.33 438.55 434.33 438.55 413.65 382.65 417.16" style="fill:#263238"></polygon><polygon points="458.16 433.81 438.55 434.33 438.55 413.65 459.98 418.05 458.16 433.81" style="fill:#37474f"></polygon><polygon points="452.64 416.54 449.04 460.31 444.71 460.31 447.11 415.41 452.64 416.54" style="fill:#FFC727"></polygon><polygon points="452.64 416.54 449.04 460.31 444.71 460.31 447.11 415.41 452.64 416.54" style="opacity:0.1"></polygon><polygon points="417.11 415.03 417.11 460.47 405.73 460.47 404.44 415.84 417.11 415.03" style="fill:#FFC727"></polygon></g><g id="freepik--Cake--inject-42"><polygon points="154.16 420.65 152.7 389.7 157.92 389.7 157.92 420.65 154.16 420.65" style="fill:#37474f"></polygon><path d="M155.31,387.24c-7.21-4.53,0-13.12,0-13.12S162.51,382.71,155.31,387.24Z" style="fill:#FFC727"></path><path d="M155.31,387.24c-4.67-2.94,0-8.5,0-8.5S160,384.3,155.31,387.24Z" style="opacity:0.1"></path><polygon points="142.2 420.65 140.74 389.7 145.96 389.7 145.96 420.65 142.2 420.65" style="fill:#37474f"></polygon><path d="M143.35,387.24c-7.2-4.53,0-13.12,0-13.12S150.55,382.71,143.35,387.24Z" style="fill:#FFC727"></path><path d="M143.35,387.24c-4.67-2.94,0-8.5,0-8.5S148,384.3,143.35,387.24Z" style="opacity:0.1"></path><polygon points="130.24 420.65 128.78 389.7 134 389.7 134 420.65 130.24 420.65" style="fill:#37474f"></polygon><path d="M131.39,387.24c-7.2-4.53,0-13.12,0-13.12S138.6,382.71,131.39,387.24Z" style="fill:#FFC727"></path><path d="M131.39,387.24c-4.67-2.94,0-8.5,0-8.5S136.06,384.3,131.39,387.24Z" style="opacity:0.1"></path><polygon points="118.28 420.65 116.82 389.7 122.04 389.7 122.04 420.65 118.28 420.65" style="fill:#37474f"></polygon><path d="M119.44,387.24c-7.21-4.53,0-13.12,0-13.12S126.64,382.71,119.44,387.24Z" style="fill:#FFC727"></path><path d="M119.44,387.24c-4.67-2.94,0-8.5,0-8.5S124.1,384.3,119.44,387.24Z" style="opacity:0.1"></path><rect x="86.25" y="413.36" width="102.25" height="41.11" style="fill:#FFC727"></rect><rect x="86.25" y="413.36" width="102.25" height="41.11" style="opacity:0.1"></rect><path d="M188.22,436.17c-3.42.05-10.45,1.05-14.59.7s-19.46-.7-24.22-.7-14.92.95-19.21.38-21.45-.56-24.43-.38-15.31.58-17.54-.11-2.75-1.92-2.16-2.1,3.87,1.59,7.51,1.41,16.73-1.64,20.89-1.44,16,1.62,18.14,1.44,14-1.14,17.77-.7a173.42,173.42,0,0,0,17.92.26c3.57-.18,19.92-.18,20.37.44S188.89,436.15,188.22,436.17Z" style="fill:#FFC727"></path><path d="M84.57,412.79H189.41s2.34,7.29-.51,7.29c-2.1,0-2-2.94-5.57-2.94s-2.77,8.7-6.85,8.7-3.38-5.41-6.21-5.41-2.58,3.29-5.52,3.29-3.24-6.52-6.12-6.52-3.18,5.23-8.18,5.23-5.06-4.48-9.24-4.48S138.81,427,134,427c-3.75,0-3.42-5.18-5.66-6.35s-.88,3.88-3.88,3.88-1.88-6.29-4.26-6.29-2,5-5.5,5-2.12-7.17-6.12-7.17c-3.47,0-2.7,3.82-6.64,3.82s-4.19-3.17-7.51-3.17S90.88,422,87.17,422,84.57,412.79,84.57,412.79Z" style="fill:#FFC727"></path><path d="M84.57,412.79H189.41s2.34,7.29-.51,7.29c-2.1,0-2-2.94-5.57-2.94s-2.77,8.7-6.85,8.7-3.38-5.41-6.21-5.41-2.58,3.29-5.52,3.29-3.24-6.52-6.12-6.52-3.18,5.23-8.18,5.23-5.06-4.48-9.24-4.48S138.81,427,134,427c-3.75,0-3.42-5.18-5.66-6.35s-.88,3.88-3.88,3.88-1.88-6.29-4.26-6.29-2,5-5.5,5-2.12-7.17-6.12-7.17c-3.47,0-2.7,3.82-6.64,3.82s-4.19-3.17-7.51-3.17S90.88,422,87.17,422,84.57,412.79,84.57,412.79Z" style="fill:#fff;opacity:0.30000000000000004"></path><path d="M171.32,425.11a.83.83,0,0,0,0,1.65A.83.83,0,0,0,171.32,425.11Z" style="fill:#FFC727"></path><path d="M99.21,441.65a1.92,1.92,0,0,0-.12-.25.38.38,0,0,0-.65,0,1.92,1.92,0,0,0-.12.25C97.85,442.63,99.68,442.63,99.21,441.65Z" style="fill:#FFC727"></path><path d="M178.43,430.15a.63.63,0,0,0,0,1.26A.63.63,0,0,0,178.43,430.15Z" style="fill:#FFC727"></path><path d="M104.47,448.71a.63.63,0,0,0,0,1.26A.63.63,0,0,0,104.47,448.71Z" style="fill:#FFC727"></path><path d="M150,442.64a.63.63,0,0,0,0,1.26A.63.63,0,0,0,150,442.64Z" style="fill:#FFC727"></path><path d="M111.84,426.39a.87.87,0,0,0-1.23,0,1.21,1.21,0,0,0-.3,1.19,1,1,0,0,0,1.83,0A1.21,1.21,0,0,0,111.84,426.39Z" style="fill:#FFC727"></path><path d="M91.6,444.77a.89.89,0,0,0-1.23,0,1.23,1.23,0,0,0-.3,1.2,1,1,0,0,0,1.83,0A1.23,1.23,0,0,0,91.6,444.77Z" style="fill:#FFC727"></path><polygon points="208.04 454.47 201.65 460.3 74.06 460.3 67.68 454.47 208.04 454.47" style="fill:#263238"></polygon></g></svg>
